/* XPM */
static char *_dd72d574f6c4eec8d2d682adf65eda3i7WKPeBqsdTpxYY7[] = {
/* columns rows colors chars-per-pixel */
"192 32 7 1 ",
"  c None",
". c #272744",
"X c #494D7E",
"o c #8B6D9C",
"O c #C69FA5",
"+ c #F2D3AB",
"@ c #FBF5EF",
/* pixels */
"                                                                                                                                                                                                ",
"                                                                             ....                                                                                                               ",
"     .       ....                    .       ....                    .      .oooo.                                                                                   .                          ",
"    .@.     .oooo.                  .@.     .oooo.                  .@.    .....oo..                 .       ....                    .       ....                   .@.      ....               ",
"   .O+@.   .....oo..               .O+@.   .....oo..               .O+@.  .......o.X.               .@.     .oooo.                  .@.     .oooo.                 .O+@.    .oooo.              ",
"  .oOX+@. .......o.X.             .oOX+@. .......o.X.             .oOX+@....XXXX...XX.             .O+@.   .....oo..               .O+@.   .....oo..              .oOX+@.  .....oo..            ",
"  .oOXO+....XXXX...XX.            .oOXO+....XXXX...XX.            .oOXO+...XXXoXXXXOX.            .oOX+@. .......o.X.             .oOX+@. .......o.X.             .oOXO+. .......o.X.           ",
"  .oOXO+...XXXoXXXXOX.            .oOXO+...XXXoXXXXOX.            .oOXO+...XXo......O.            .oOXO+....XXXX...XX.            .oOXO+....XXXX...XX.            .oOXO+....XXXX...XX.          ",
"  .oOXO+...XXo......O.            .oOXO+...XXo......O.            .oOXO+...XXXO.....o.            .oOXO+...XXXoXXXXOX.            .oOXO+...XXXoXXXXOX.            .oOXO+...XXXoXXXXOX.          ",
"  .oOXO+...XXXO.....o.            .oOXO+...XXXO.....o.            .oOXO+...XXXXoO..oX.            .oOXO+...XXo......O.            .oOXO+...XXo......O.            .oOXO+...XXo......O.          ",
"  .oOXO+...XXXXoO..oX.            .oOXO+...XXXXoO..oX.            .oOXO+...XXXXXo..XX.            .oOXO+...XXXO.....o.            .oOXO+...XXXO.....o.            .oOXO+...XXXO.....o.          ",
"  .oOXO@...XXXXXo..XX.            .oOXO@...XXXXXo..XX.            .oOXO@....XXXXo..XX.            .oOXO+...XXXXoO..oX.            .oOXO+...XXXXoO..oX.            .oOXO@...XXXXoO..oX.          ",
"   .OX+. ...XXXXo..XX.             .OX+. ...XXXXo..XX..            .OX+.  ...XXXo..XX..           .oOXO@...XXXXXo..XX.            .oOXO@...XXXXXo..XX.             .OX+. ..XXXXXo..XX.          ",
"   .OX+.  ...XXXo..XX..  .         .OX+. ....XXXo..XX.O. .         .OX+. ............XO. .         .OX+. ...XXXXo..XX..            .OX+. ...XXXXo..XX..            .OX+. ...XXXXo..XX..         ",
"   .OX+. ............XO..+.  .     .OX+....O.........Xo..+.  .     .OX+....O.......X.Xo..+.  .     .OX+.  ...XXXo..XX.O. .         .OX+.  ...XXXo..XX.O. .         .OX+. ....XXXo..XX.O. .      ",
"   .OX+....O........X...XO+..X.    .OX+...XXO.......X...XO+..X.    .OX+...XXO...X...X...XO+..X.    .OX+. ............Xo..+.  .     .OX+. ............Xo..+.  .     .OX+....O.........Xo..+.  .  ",
"   .OX+...XXO...X...XXXXooOO+X.    .OX+..XXXo...X...XXXXooOO+X.    .OX+..XXXo.XXoOX.XXXXooOO+X.    .OX+....O....X...X...XO+..X.    .OX+....O........X...XO+..X.    .OX+...XXO.......X...XO+..X. ",
"  ..OX@..XXXo.XXoOX.XXoooooOOX.   ..OX@..XXXo.XXoOX.XXoooooOOX.   ..OX@..XXXo.XXXOX.XXoooooOOX.    .OX+...XXO.XXoOX.XXXXooOO+X.    .OX+...XXO...X...XXXXooOO+X.   ..OX@..XXXo...X...XXXXooOO+X. ",
" .oX...Xo.XXo.XXXOX.XXooooooOX.  .oX...Xo.Xo.XXXXOX.XXooooooOX.  .oX...Xo.Xo.XXXXoX.XXooooooOX.   ..OX@..XXXo.XXXOX.XXoooooOOX.   ..OX@..XXXo.XXoOX.XXoooooOOX.  .oX...Xo.XXo.XXoOX.XXoooooOOX. ",
"  .ooooo..Xo.XXXXoX.XXooooooOX.   .ooooo.....XXXXoX.XXooooooOX.   .ooooo.....XXXXOX.XXooooooOX.  .oX...Xo.XXo.XXXoX.XXooooooOX.  .oX...Xo.XXo.XXXOX.XXooooooOX.   .ooooo..Xo.XXXXOX.XXooooooOX. ",
"   .....o....XXXXOX.XXooooooOX.    ......  ..XXXXOX.XXooooooOX.    ......  ...XXXoX.XXooooooOX.   .ooooo..Xo.XXXXOX.XXooooooOX.   .ooooo..Xo.XXXXoX.XXooooooOX.    .....o....XXXXoX.XXooooooOX. ",
"   ....X.  ...XXXoX.XXooooooOX.    .X.XX.  ...XXXoX.XXooooooOX.    .X.XX.  .o..XoX..XXooooooOX.    .....o.....XXXoX.XXooooooOX.    .....o....XXXXOX.XXooooooOX.    ....X.  ..XXXXOX.XXooooooOX. ",
"   .X.XX.  .o..XoX..XXXooooOoX.    .XXX.   .o..XoX..XXXooooOoX.    .XXX.   .oo....X.XXXooooOoX.    ....X.  .o..XoX..XXooooooOX.    ....X.  ...XXXoX.XXooooooOX.    .X.XX.  ...XXXoX.XXooooooOX. ",
"   .XXX.   .oo....X..XXoooooX.      ...    .oo....X..XXoooooX.      ...    .ooo.XXX..XXoooooX.     .X.XX.  .oo....o.XXXooooOoX.    .X.XX.  .o..XoX..XXXooooOoX.    .XXX.   .o..XoX..XXXooooOoX. ",
"    ...    .ooo.XX.  .XXoooX.              .ooo.XX.  .XXoooX.              .ooo.XX.  .XXoooX.      .XXX.   .ooo.XX. .XXoooooX.     .XXX.   .oo..... .XXoooooX.      ...    .oo..... .XXoooooX.  ",
"           .oo..XX.   ......               .oo..XX.   ......               .oo..XX.   ......        ...    .oo..XX.  .XXoooX.       ...    .oo..XX.  .XXoooX.              .oo..XX.  .XXoooX.   ",
"           .oo..X.                         .oo..X.                         .oo..X.                         .oo..X.    ......               .oo..X.    ......               .oo..X.    ......    ",
"           .o. ...                         .o. ...                         .o. ...                         .o. ...                         .o. ...                         .o. ...              ",
"           ... .XX.                        ... .XX.                        ... .XX.                        ... .XX.                        ... .XX.                        ... .XX.             ",
"           .X. ....                        .X. ....                        .X. ....                        .X. ....                        .X. ....                        .X. ....             ",
"           ...                             ...                             ...                             ...                             ...                             ...                  ",
"                                                                                                                                                                                                "
};
