/* XPM */
static char *_cb111466d7a43b1ff5d4b1ddfc26cb8iAoaNnF8hsRrjTCz[] = {
/* columns rows colors chars-per-pixel */
"128 32 8 1 ",
"  c None",
". c #252329",
"X c #3B3B4D",
"o c #3E4652",
"O c #615E70",
"+ c #968C94",
"@ c #BDB3AC",
"# c #F7ECD5",
/* pixels */
"                         o                                oo                                o                               o   ",
"                         oo                              ooo                                oo                              oo  ",
"                        ooo                           .  ooo                               ooo                             ooo  ",
"                     .  ooo                           . oooo                            .  ooo                          .  ooo  ",
"                     . oooo                        ooo.ooooo                            . oooo                          . oooo  ",
"                  ooo.ooooo                         oo.ooooo                         ooo.ooooo                       ooo.ooooo  ",
"                   oo.ooooo                           . ooo                           oo.ooooo                        oo.ooooo  ",
"              @###@  . ooo                            .  oo                             . ooo                           . ooo   ",
"             @#####@ .  oo                    @###@   .  o                    #####     .  oo                 @###@     .  oo   ",
"             ####### .  o                    @#####@  .                      @#####@    .  o                 @#####@    .  o    ",
"             #OXXO#XO.                       #######  .                      #######    .                    #######    .       ",
"             ##XX##X .                       #OXXO#XO .                      #OXXO#OO   .                    ##OXXO#O   .       ",
"             @####O# .                       ##XX##X  .                      ##XXO#O    .                    ###XX##    .       ",
"              @@###@ .                       @####O#   .                     @####OO    .                    @#####O    .       ",
"              OO#@#  .                        @@###@   .                      @#####    .                     @@####    .       ",
"              OO     .                        OO#@#    .                  ##@@@@#@#@    .                     OO#@#@   .        ",
"          ###@@OO#   .                    ##@@@OO#     .                 ###@#####      .                 ##@#@@O#     .        ",
"          ##@#####   .                   ###@#####    XX                ### @OO@#@      .                #########     .        ",
"         ###OO@#@O  XX                  ### OO@#@O  XXXX                ##  @#####X    XX               ### #OO@#@    XX        ",
"         ## @#####XXXX                  ##  @#####XXXX .                ##   @OO@#@XXXXXX               ##  @#####XXXXXX        ",
"         ##  OO@#@OX .                  ##   OO@#@OX   .                ##   @#####XXXX .               ##   #OO@#@XXX .        ",
"          ## @#####  .                  ###  @#####    .                ###    OO       .               ##   @#####X   .        ",
"          ###  OO    .                   ###   OO       .               ##     OO       .               ##     OO      .        ",
"           ##  OO    .                    ##   OO       .                    +###+      .                      OO      .        ",
"             ####++  .                       ###++      .                    ####+      .                    ++###     .        ",
"             ####++  .                       ####+      .                     O##       .                    +####    .         ",
"            ###  OO  .                      ####OO      .                     O##       .                    OO ##    .         ",
"            ###  OO  .                      ###OO       .                     O##       .                   OOO ##    .         ",
"           ###  OO   .                     ### OO       .                    O###       .                   OO ##     .         ",
"           ##   OO   .                     ## OO        .                    O##        .                  OOO ##     .         ",
"          ##    OO   .                     ## OO        .                   OO##        .                  OO  ##     .         ",
"          ##    OOO  .                        OOO                           OO          .                   O  ###    .         "
};
